<?xml version="1.0"?>
<svg class="text-primary" width="887" height="698" xmlns="http://www.w3.org/2000/svg" xmlns:svg="http://www.w3.org/2000/svg" enable-background="new 0 0 887 698" version="1.1" xml:space="preserve">
 <g class="layer">
  <title>Layer 1</title>
  <path d="m467.53,32c8.71,2.7 17.36,4.54 25.11,8.26c30.44,14.6 47.23,39.49 52.09,72.53c0.99,6.67 0.15,13.61 0.15,20.74c20.45,6.85 40.8,13.67 61.16,20.47c25.21,8.41 50.38,16.92 75.66,25.12c11.94,3.87 21.86,10.02 26.73,22.06c5.84,14.42 3.71,28.06 -6.81,39.45c-10.84,11.74 -24.58,14.7 -39.74,9.66c-48.25,-16.02 -96.48,-32.05 -144.62,-48.38c-6.98,-2.36 -12.34,-2.57 -19.22,1.51c-6.41,3.8 -8.23,7.38 -8.22,14.51c0.25,121.14 0.16,242.28 0.22,363.42c0,9.42 -1.81,18.18 -7.51,25.85c-7.53,10.12 -17.98,14.71 -30.23,14.73c-73.49,0.13 -146.97,0.17 -220.46,-0.02c-15.91,-0.04 -27.91,-7.73 -34.33,-22.29c-6.18,-14.01 -3.74,-27.4 6.43,-38.95c7.69,-8.73 17.58,-12.57 29.28,-12.55c58.82,0.11 117.64,0.05 176.46,0.05c1.96,0 3.92,0 6.32,0c0,-2.18 0,-3.97 0,-5.75c0,-109.81 -0.02,-219.62 0.09,-329.43c0,-3.63 -0.93,-5.49 -4.26,-7.22c-21.37,-11.05 -36.9,-27.54 -45.28,-50.32c-1.1,-2.98 -2.75,-4.44 -5.72,-5.43c-46.12,-15.29 -92.17,-30.76 -138.29,-46.03c-14.6,-4.84 -24.48,-13.96 -27.37,-29.38c-3.47,-18.52 6.97,-35.2 25.78,-42.24c6.4,-0.37 12.76,-0.37 19.72,-0.02c1.89,0.7 3.18,1.01 4.43,1.43c33.68,11.17 67.35,22.35 101.02,33.54c9.19,3.06 18.38,6.14 27.45,9.18c10.72,-16.7 23.93,-29.78 41.88,-37.26c6.98,-2.91 14.35,-4.86 21.55,-7.24c10.02,0 20.04,0 30.53,0z" fill="currentColor" id="svg_2"/>
  <path d="m348.58,328.41c3.9,7.92 8.34,15.27 11.12,23.21c5.31,15.19 0.16,29.27 -6.98,42.53c-14.02,26.03 -35.98,43.4 -62.73,54.74c-45.82,19.42 -92.4,20.42 -139.32,4.02c-24.04,-8.39 -44.84,-21.85 -61.25,-41.5c-9.84,-11.77 -16.93,-25.18 -19.96,-40.3c-2.76,-13.76 2.75,-25.91 9.44,-37.39c35.74,-61.42 71.63,-122.75 107.45,-184.12c13.89,-23.79 43.89,-23.89 57.91,-0.04c18.71,31.85 37.25,63.8 55.86,95.72c16.09,27.6 32.16,55.22 48.46,83.13m-192.08,25.07c47.18,0 94.35,0 142.46,0c-28.21,-48.35 -55.83,-95.67 -83.72,-143.47c-27.77,47.71 -55.4,95.17 -83.51,143.47c8.59,0 16.18,0 24.77,0z" fill="currentColor" id="svg_4"/>
  <path d="m811.85,471.15c4.37,8.62 9.34,16.63 12.58,25.29c5.77,15.47 0.62,29.92 -6.73,43.49c-13.43,24.82 -34.01,42.14 -59.59,53.21c-58.3,25.21 -115.79,23.15 -171.18,-8.32c-24.71,-14.04 -42.71,-34.68 -51.19,-62.66c-3.57,-11.76 -2.06,-22.97 3.53,-33.33c10.11,-18.73 20.87,-37.12 31.58,-55.52c26.88,-46.17 53.86,-92.27 80.83,-138.38c8.93,-15.26 24.7,-21.08 40.56,-14.97c7.6,2.93 13,8.36 17.08,15.36c34.08,58.52 68.22,117.01 102.53,175.83m-126.35,28.02c25.85,0 51.71,0 78.43,0c-28.13,-48.19 -55.71,-95.44 -83.7,-143.41c-27.95,48.03 -55.54,95.46 -83.44,143.41c29.77,0 58.74,0 88.71,0z" fill="currentColor" id="svg_5"/>
 </g>
</svg>