<svg version="1.1" id="Layer_1" xmlns="http://www.w3.org/2000/svg" xmlns:xlink="http://www.w3.org/1999/xlink" x="0px" y="0px"
	 width="100%" viewBox="0 0 656 624" enable-background="new 0 0 656 624" xml:space="preserve">
<path fill="#000000" opacity="1.000000" stroke="none" 
	d="
M401.531433,1.000000 
	C419.103027,8.249884 430.736847,22.050022 441.513458,36.094036 
	C452.048676,49.823456 449.206024,69.148972 436.411163,83.255623 
	C433.687073,86.258980 433.434479,87.972023 436.404572,90.928108 
	C474.907349,129.248795 513.295593,167.684631 551.726196,206.077850 
	C552.525513,206.876373 553.486267,207.513306 554.499268,208.328201 
	C560.167847,203.424210 565.364319,198.106903 572.599854,195.901688 
	C587.381226,191.396698 600.633728,194.253036 611.909302,204.821548 
	C618.830139,211.308456 625.324707,218.251526 631.982727,225.017303 
	C644.950012,238.194504 645.180115,263.453796 630.131226,277.903595 
	C620.998230,286.673035 612.182434,295.772949 603.227417,304.727661 
	C567.053406,340.900543 530.875122,377.069153 494.712128,413.253082 
	C487.731934,420.237305 480.003418,425.453979 469.744324,426.629730 
	C460.312134,427.710632 451.539856,426.080078 444.192535,420.484558 
	C433.045685,411.995331 422.829254,402.194244 414.742859,390.770630 
	C405.084839,377.126801 406.939667,358.617249 417.888580,345.860168 
	C419.608612,343.856110 421.347717,341.868439 422.567963,340.461334 
	C382.348663,299.782135 342.334595,259.310516 302.521698,219.042404 
	C300.144928,219.161880 299.232422,220.726868 298.033844,221.796082 
	C280.676392,237.280441 259.800018,236.918610 243.021240,220.728928 
	C237.865845,215.754532 232.861511,210.622208 227.833771,205.517105 
	C209.689957,187.094162 209.826599,165.345612 228.214706,146.973480 
	C255.088943,120.122581 281.989655,93.298203 308.867554,66.450935 
	C326.313751,49.024612 343.813507,31.650862 361.129852,14.096289 
	C366.480469,8.672115 372.255554,4.085316 379.705902,1.182118 
	C387.020966,1.000000 394.041901,1.000000 401.531433,1.000000 
z"/>
<path fill="#000000" opacity="1.000000" stroke="none" 
	d="
M298.521973,398.054291 
	C300.169525,400.868652 301.953003,403.272766 303.455414,405.841278 
	C313.129669,422.380798 310.448395,440.365570 295.904846,454.954315 
	C265.666016,485.287109 235.321243,515.514221 205.026535,545.791382 
	C193.356735,557.454346 181.073135,568.580322 170.206436,580.950012 
	C157.020508,595.959839 127.893600,596.107300 114.812737,582.307556 
	C96.707848,563.207642 77.711937,544.951904 59.083817,526.348511 
	C44.208241,511.492676 45.218616,486.511505 60.408623,471.563171 
	C89.627182,442.809357 118.485161,413.689117 147.492813,384.721008 
	C160.816086,371.415924 174.033340,358.002472 187.492249,344.836029 
	C201.692261,330.944611 220.426956,328.668060 236.355118,338.562744 
	C244.165283,343.414459 244.172806,343.421936 250.870026,336.717407 
	C269.595367,317.971588 288.387115,299.290955 306.965942,280.400940 
	C310.208069,277.104523 312.147705,277.056366 315.391266,280.382446 
	C330.398438,295.771393 345.547028,311.026978 360.888092,326.082520 
	C364.466705,329.594482 363.970398,331.515411 360.620422,334.812317 
	C340.667786,354.448944 320.944000,374.318237 301.176208,394.142212 
	C300.139801,395.181610 299.403809,396.520569 298.521973,398.054291 
z"/>
</svg>