<?xml version="1.0"?>
<svg width="101" height="101" xmlns="http://www.w3.org/2000/svg" xmlns:svg="http://www.w3.org/2000/svg" xmlns:xlink="http://www.w3.org/1999/xlink" enable-background="new 0 0 101 101" version="1.1" xml:space="preserve">
 <!-- Created with SVG-edit - https://github.com/SVG-Edit/svgedit-->
 <defs>
  <symbol id="svg_2" viewBox="0 0 100.354 100.352" xmlns="http://www.w3.org/2000/svg" xmlns:xlink="http://www.w3.org/1999/xlink">
   <path d="m93.09,76.22c0.05,-0.14 0.08,-0.29 0.08,-0.45l0,-53.13c0,-0.16 -0.03,-0.32 -0.08,-0.46c-0.01,-0.02 -0.01,-0.04 -0.02,-0.06c-0.06,-0.17 -0.16,-0.33 -0.28,-0.46c0,-0.01 -0.01,-0.02 -0.01,-0.03c-0.01,-0.01 -0.01,-0.01 -0.02,-0.01c-0.13,-0.14 -0.27,-0.25 -0.44,-0.33c-0.01,0 -0.02,-0.01 -0.04,-0.02c-0.15,-0.07 -0.33,-0.11 -0.51,-0.12c-0.02,0 -0.03,-0.01 -0.05,-0.01c-0.02,0 -0.03,0 -0.05,0l-83.2,0c-0.02,0 -0.04,0 -0.05,0c-0.02,0.01 -0.04,0.01 -0.05,0.01c-0.19,0.01 -0.36,0.05 -0.52,0.12c-0.01,0.01 -0.02,0.02 -0.03,0.02c-0.17,0.08 -0.32,0.19 -0.45,0.33c0,0 -0.01,0 -0.01,0.01c-0.01,0.01 -0.01,0.02 -0.02,0.03c-0.12,0.13 -0.21,0.29 -0.28,0.46c0,0.02 -0.01,0.04 -0.02,0.06c-0.04,0.14 -0.08,0.3 -0.08,0.46l0,53.13c0,0.16 0.04,0.32 0.09,0.46c0,0.02 0.01,0.04 0.01,0.06c0.07,0.18 0.17,0.33 0.28,0.47c0.01,0 0.01,0.01 0.02,0.02c0.01,0.01 0.01,0.01 0.02,0.02c0.05,0.05 0.1,0.1 0.16,0.14c0.03,0.02 0.05,0.04 0.07,0.06c0.07,0.05 0.14,0.08 0.21,0.12c0.02,0.01 0.04,0.02 0.06,0.03c0.18,0.07 0.38,0.12 0.58,0.12l83.21,0c0.21,0 0.41,-0.05 0.59,-0.12c0.02,-0.02 0.05,-0.03 0.08,-0.05c0.06,-0.03 0.12,-0.06 0.18,-0.1c0.03,-0.02 0.06,-0.05 0.08,-0.07c0.06,-0.04 0.11,-0.08 0.15,-0.13c0.01,-0.01 0.02,-0.01 0.02,-0.02c0.01,-0.01 0.01,-0.02 0.02,-0.03c0.12,-0.14 0.21,-0.29 0.28,-0.46c0.01,-0.02 0.01,-0.04 0.02,-0.07zm-83.12,-50.18l25.24,23.06l-25.25,23.25l0,-46.31l0.01,0zm51.74,21.93c-0.1,0.07 -0.21,0.13 -0.3,0.22c-0.03,0.04 -0.04,0.08 -0.07,0.12l-11.27,10.3l-37.74,-34.47l75.47,0l-26.09,23.83zm-24.27,3.16l11.61,10.61c0.29,0.27 0.65,0.4 1.02,0.4s0.72,-0.13 1.01,-0.4l11.47,-10.48l25.25,23.01l-75.49,0l25.13,-23.14zm27.34,-1.9l25.39,-23.19l0,46.33l-25.39,-23.14z" id="svg_1"/>
  </symbol>
 </defs>
 <g class="layer">
  <title>Layer 1</title>
  <use fill="#ffffff" id="svg_3" stroke="#eaeaea" transform="matrix(1.08987 0 0 1.14372 -4.01161 -5.52636)" x="0" xlink:href="#svg_2" y="0"/>
 </g>
</svg>