<?xml version="1.0"?>
<svg width="24" height="24" xmlns="http://www.w3.org/2000/svg" xmlns:svg="http://www.w3.org/2000/svg" class="text-primary dark:text-white">
 <g class="layer">
  <title>Layer 1</title>
  <path d="m15.5,8.43a4.99,4.99 0 0 1 1.5,3.57a4.98,4.98 0 0 1 -1.43,3.5m2.79,2.86a8.97,8.97 0 0 0 2.64,-6.36a8.97,8.97 0 0 0 -2.64,-6.36m-6.36,0.49l0,11.74a1,1 0 0 1 -1.64,0.76l-4.36,-3.63l-2,0a1,1 0 0 1 -1,-1l0,-4a1,1 0 0 1 1,-1l2,0l4.36,-3.63a1,1 0 0 1 1.64,0.76z" fill="#004977" id="svg_1" stroke="#004977" stroke-linecap="round" stroke-linejoin="round" stroke-width="2"/>
 </g>
</svg>