<?xml version="1.0"?>
<svg width="101" height="101" xmlns="http://www.w3.org/2000/svg" xmlns:svg="http://www.w3.org/2000/svg" enable-background="new 0 0 101 101" version="1.1" xml:space="preserve">
 <title>Artboard 2 copy 10 копия 12</title>
 <g class="layer">
  <title>Layer 1</title>
  <path d="m60.2,64.5c-0.4,-0.7 -1.4,-0.9 -2.1,-0.5l-9.3,5.7c-3.1,1.8 -7.1,0.9 -9.1,-2l-12.6,-20.5c-1.8,-2.9 -0.9,-6.8 2,-8.6l0,0l9.6,-6c0.7,-0.4 0.9,-1.4 0.5,-2.1l-8,-13c-0.4,-0.7 -1.4,-0.9 -2.1,-0.5l-9.6,6c-10.7,6.7 -10.3,24.1 1,42.4c5.2,8.4 11.7,15.1 18.3,18.8c3.4,2 7.3,3.2 11.3,3.3c2.9,0 5.8,-0.8 8.3,-2.3l9.2,-5.7c0.7,-0.4 0.9,-1.4 0.5,-2.1l-7.9,-12.9zm-3.3,18.2c-5.8,3.6 -12.2,1.4 -16.6,-1c-6.2,-3.6 -12.3,-9.9 -17.3,-17.8c-10.3,-16.8 -11.1,-32.5 -1.8,-38.2l8.4,-5.2l6.4,10.4l-8.4,5.1l0,0c-4.3,2.7 -5.7,8.4 -3,12.8l12.6,20.5c2.9,4.4 8.7,5.7 13.2,3l8,-4.9l6.4,10.4l-7.9,4.9z" fill="#ffffff" id="svg_1" stroke="#ffffff"/>
  <path d="m48.7,33.1c8.2,0.5 14.4,7.5 13.9,15.6c-0.1,1.3 -0.3,2.6 -0.7,3.8c-0.3,0.8 0.2,1.6 1,1.9c0.8,0.3 1.6,-0.2 1.9,-0.9c3.1,-9.3 -1.9,-19.4 -11.2,-22.5c-1.5,-0.5 -3,-0.8 -4.6,-0.9c-0.8,-0.1 -1.5,0.5 -1.6,1.4c0,0 0,0 0,0c-0.1,0.9 0.5,1.6 1.3,1.6c0,0 0,0 0,0z" fill="#ffffff" id="svg_2"/>
  <path d="m51.1,19.2c-0.8,-0.1 -1.6,0.5 -1.7,1.3c-0.1,0.8 0.5,1.6 1.3,1.7c14.3,1.6 24.5,14.5 22.8,28.6c-0.2,1.4 -0.4,2.8 -0.8,4.2c-0.3,0.8 0.2,1.6 0.9,1.9c0.8,0.3 1.6,-0.2 1.9,-0.9c0,0 0,-0.1 0,-0.1c4.4,-15.3 -4.5,-31.3 -19.8,-35.7c-1.4,-0.5 -3,-0.8 -4.6,-1z" fill="#ffffff" id="svg_3"/>
  <path d="m80.3,26.8c-6.1,-9.4 -16,-15.7 -27.1,-17.2c-0.8,-0.1 -1.6,0.5 -1.7,1.3c-0.1,0.8 0.5,1.6 1.3,1.7c19.5,2.7 33.1,20.8 30.4,40.3c-0.2,1.5 -0.5,2.9 -0.9,4.3c-0.2,0.8 0.3,1.6 1.1,1.8c0.8,0.2 1.6,-0.3 1.8,-1.1l0,0c2.9,-10.6 1.1,-21.9 -4.9,-31.1z" fill="#ffffff" id="svg_4"/>
 </g>
</svg>