<svg xmlns="http://www.w3.org/2000/svg"  viewBox="0 0 32 32" width="64px" height="64px">


<symbol id="icon-menu" viewBox="0 0 32 32" fill="currentColor">
<path d="M 8 5 C 6.3550302 5 5 6.3550302 5 8 C 5 9.6449698 6.3550302 11 8 11 L 24 11 C 25.64497 11 27 9.6449698 27 8 C 27 6.3550302 25.64497 5 24 5 L 8 5 z M 8 7 L 24 7 C 24.56503 7 25 7.4349698 25 8 C 25 8.5650302 24.56503 9 24 9 L 8 9 C 7.4349698 9 7 8.5650302 7 8 C 7 7.4349698 7.4349698 7 8 7 z M 8 13 C 6.3550302 13 5 14.35503 5 16 C 5 17.64497 6.3550302 19 8 19 L 24 19 C 25.64497 19 27 17.64497 27 16 C 27 14.35503 25.64497 13 24 13 L 8 13 z M 8 15 L 24 15 C 24.56503 15 25 15.43497 25 16 C 25 16.56503 24.56503 17 24 17 L 8 17 C 7.4349698 17 7 16.56503 7 16 C 7 15.43497 7.4349698 15 8 15 z M 8 21 C 6.3550302 21 5 22.35503 5 24 C 5 25.64497 6.3550302 27 8 27 L 24 27 C 25.64497 27 27 25.64497 27 24 C 27 22.35503 25.64497 21 24 21 L 8 21 z M 8 23 L 24 23 C 24.56503 23 25 23.43497 25 24 C 25 24.56503 24.56503 25 24 25 L 8 25 C 7.4349698 25 7 24.56503 7 24 C 7 23.43497 7.4349698 23 8 23 z"/>
</symbol>

<svg id="icon-izquierda" class="w-auto h-auto text-gray-800 dark:text-white" aria-hidden="true" xmlns="http://www.w3.org/2000/svg" fill="none" viewBox="0 0 24 24">
  <path stroke="currentColor" stroke-linecap="round" stroke-linejoin="round" stroke-width="2" d="m15 19-7-7 7-7"/>
</svg>


<svg id="icon-derecha" class="w-auto h-auto text-gray-800 dark:text-white" aria-hidden="true" xmlns="http://www.w3.org/2000/svg" fill="none" viewBox="0 0 24 24">
  <path stroke="currentColor" stroke-linecap="round" stroke-linejoin="round" stroke-width="2" d="m9 5 7 7-7 7"/>
</svg>

<svg id="resultados" class="w-6 h-6 text-gray-800 dark:text-white" aria-hidden="true" xmlns="http://www.w3.org/2000/svg" fill="none" viewBox="0 0 24 24">
  <path stroke="currentColor" stroke-linecap="round" stroke-linejoin="round" stroke-width="2" d="M4 15v2a3 3 0 0 0 3 3h10a3 3 0 0 0 3-3v-2m-8 1V4m0 12-4-4m4 4 4-4"/>
</svg>

<svg id="citas" class="w-6 h-6 text-gray-800 dark:text-white" aria-hidden="true" xmlns="http://www.w3.org/2000/svg" fill="none" viewBox="0 0 24 24">
  <path stroke="currentColor" stroke-linecap="round" stroke-linejoin="round" stroke-width="2" d="M15 4h3a1 1 0 0 1 1 1v15a1 1 0 0 1-1 1H6a1 1 0 0 1-1-1V5a1 1 0 0 1 1-1h3m0 3h6m-6 7 2 2 4-4m-5-9v4h4ñV3h-4Z"/>
</svg>

<svg id="intranet" class="w-6 h-6 text-gray-800 dark:text-white" aria-hidden="true" xmlns="http://www.w3.org/2000/svg" fill="none" viewBox="0 0 24 24">
  <path stroke="currentColor" stroke-linecap="round" stroke-linejoin="round" stroke-width="2" d="M8 8v8m0-8a2 2 0 1 0 0-4 2 2 0 0 0 0 4Zm0 8a2 2 0 1 0 0 4 2 2 0 0 0 0-4Zm8-8a2 2 0 1 0 0-4 2 2 0 0 0 0 4Zm0 0a4 4 0 0 1-4 4h-1a3 3 0 0 0-3 3"/>
</svg>

<svg version="1.1" y="0" x="0" id="ambulancia" xmlns="http://www.w3.org/2000/svg" xmlns:xlink="http://www.w3.org/1999/xlink" fill="currentColor" viewBox="0 0 24 24"
	 viewBox="0 0 100.75 100.75" style="enable-background:new 0 0 100.75 100.75;" xml:space="preserve">
<path d="M97.716,18.139H40.487c-0.829,0-1.5,0.671-1.5,1.5v14.022H21.799c-0.411,0-0.803,0.168-1.086,0.466L2.032,53.757
	c-0.266,0.279-0.414,0.649-0.414,1.034v17.262c0,0.829,0.671,1.5,1.5,1.5h10.409c0.51,4.112,4.021,7.308,8.272,7.308
	c4.254,0,7.769-3.195,8.279-7.308h10.409H67.74c0.509,4.112,4.013,7.308,8.255,7.308c4.255,0,7.77-3.195,8.281-7.308h13.44
	c0.829,0,1.5-0.671,1.5-1.5V19.638C99.216,18.811,98.544,18.139,97.716,18.139z M21.798,77.861c-2.946,0-5.342-2.395-5.342-5.338
	c0-2.946,2.396-5.342,5.342-5.342c2.95,0,5.35,2.396,5.35,5.342C27.148,75.467,24.748,77.861,21.798,77.861z M21.798,64.181
	c-3.921,0-7.209,2.722-8.098,6.373H4.616V55.391l17.824-18.73h16.545v33.893h-9.083C29.014,66.903,25.722,64.181,21.798,64.181z
	 M75.994,77.861c-2.937,0-5.325-2.395-5.325-5.338c0-2.946,2.389-5.342,5.325-5.342c2.951,0,5.352,2.396,5.352,5.342
	C81.346,75.467,78.945,77.861,75.994,77.861z M96.216,70.554H84.101c-0.89-3.651-4.182-6.373-8.107-6.373
	c-3.912,0-7.194,2.722-8.081,6.373H41.986V21.139h54.229L96.216,70.554L96.216,70.554z"/>
<path d="M59.09,44.912h8.079v8.08c0,0.829,0.671,1.5,1.5,1.5s1.5-0.671,1.5-1.5v-8.08h8.078c0.829,0,1.5-0.671,1.5-1.5
	s-0.671-1.5-1.5-1.5h-8.078v-8.074c0-0.829-0.671-1.5-1.5-1.5s-1.5,0.671-1.5,1.5v8.074H59.09c-0.829,0-1.5,0.671-1.5,1.5
	S58.261,44.912,59.09,44.912z"/>
</svg>

<svg version="1.1" y="0" x="0" id="corazona" xmlns="http://www.w3.org/2000/svg" xmlns:xlink="http://www.w3.org/1999/xlink" fill="currentColor" viewBox="0 0 24 24"
	 viewBox="0 0 100.75 100.75" style="enable-background:new 0 0 100.75 100.75;" xml:space="preserve">
<path d="M81.182,20.794c-0.024-0.024-0.051-0.048-0.077-0.071l-5.798-5.037v-4.352c0-0.829-0.672-1.5-1.5-1.5s-1.5,0.671-1.5,1.5
	V21.69c0,0.829,0.672,1.5,1.5,1.5s1.5-0.671,1.5-1.5v-2.031l3.79,3.293c4.141,4.171,4.916,10.591,1.885,15.625l-7.783,12.815
	l-0.355-0.57c-0.274-0.44-0.756-0.707-1.273-0.707c-0.004,0-0.008,0-0.012,0c-0.521,0.004-1.004,0.279-1.273,0.727
	c-1.082,1.797-3.614,3.374-5.42,3.374c-1.898,0-4.767-1.671-5.791-3.373c-0.269-0.448-0.752-0.723-1.274-0.727
	c-0.51-0.021-1.009,0.264-1.285,0.708l-0.253,0.408l-7.517-12.645c-3.04-5.053-2.248-11.497,1.869-15.617l3.569-3.225v2.271
	c0,0.829,0.672,1.5,1.5,1.5s1.5-0.671,1.5-1.5V11.657c0-0.829-0.672-1.5-1.5-1.5s-1.5,0.671-1.5,1.5v4.042l-5.636,5.095
	c-5.149,5.149-6.125,13.101-2.377,19.331L54.479,54.1l-0.752,1.21c-0.297,0.479-0.301,1.083-0.011,1.566
	c1.905,3.162,5.927,5.719,9.651,6.287v7.038c0,0.067,0.005,0.133,0.014,0.198c-0.124,11.475-8.765,20.768-19.368,20.768
	c-10.68,0-19.368-9.429-19.368-21.019c0-0.066-0.004-0.132-0.013-0.196V40.524c3.207-0.786,5.597-3.678,5.597-7.125
	c0-4.049-3.292-7.343-7.339-7.343c-4.051,0-7.347,3.294-7.347,7.343c0,3.619,2.636,6.628,6.089,7.227v29.791
	c0,0.078,0.006,0.155,0.018,0.229c0.248,13.015,10.185,23.52,22.363,23.52c12.334,0,22.369-10.775,22.369-24.019
	c0-0.071-0.005-0.14-0.015-0.208v-6.778c3.59-0.56,7.318-3.031,9.282-6.286c0.292-0.483,0.287-1.089-0.011-1.568l-0.662-1.063
	l8.573-14.117C87.304,33.892,86.33,25.941,81.182,20.794z M18.542,33.399c0-2.395,1.95-4.343,4.347-4.343
	c2.393,0,4.339,1.948,4.339,4.343s-1.946,4.343-4.339,4.343C20.492,37.742,18.542,35.794,18.542,33.399z M64.869,60.283
	c-0.001,0-0.001,0-0.002,0c-0.001,0-0.002,0-0.003,0c-2.752-0.001-6.241-1.869-8.072-4.221l1.18-1.897
	c1.882,1.768,4.641,3.05,6.895,3.05c2.366,0,4.84-1.356,6.541-3.026l1.17,1.88C70.753,58.483,67.53,60.281,64.869,60.283z"/>
</svg>

<svg version="1.1" y="0" x="0" id="Medidor" xmlns="http://www.w3.org/2000/svg" xmlns:xlink="http://www.w3.org/1999/xlink" fill="currentColor" viewBox="0 0 24 24"
	 viewBox="0 0 100.75 100.749" style="enable-background:new 0 0 100.75 100.749;" xml:space="preserve">
<path d="M84.492,62.317c-0.716,0-1.297,0.581-1.297,1.298v19.722H17.651V57.951c0-0.717-0.581-1.298-1.297-1.298
	s-1.297,0.581-1.297,1.298v26.684c0,0.717,0.581,1.298,1.297,1.298h68.139c0.716,0,1.297-0.581,1.297-1.298v-21.02
	C85.789,62.898,85.208,62.317,84.492,62.317z"/>
<path d="M16.353,34.662c0.716,0,1.297-0.581,1.297-1.297V16.662h65.544v19.727c0,0.716,0.581,1.297,1.297,1.297
	s1.297-0.581,1.297-1.297V15.365c0-0.716-0.581-1.297-1.297-1.297H16.352c-0.716,0-1.297,0.581-1.297,1.297v18
	C15.056,34.081,15.637,34.662,16.353,34.662z"/>
<path d="M93.531,55.786L79.527,41.613c-0.269-0.271-0.64-0.403-1.025-0.381c-0.381,0.03-0.73,0.227-0.953,0.538L58.296,68.644
	L42.821,27.905c-0.183-0.481-0.634-0.81-1.148-0.835c-0.525-0.027-0.996,0.256-1.226,0.717L26.702,55.375l-9.103-13.573
	c-0.241-0.359-0.645-0.575-1.078-0.575s-0.836,0.215-1.078,0.575L5.096,57.228c-0.399,0.595-0.24,1.401,0.355,1.8
	c0.596,0.402,1.401,0.24,1.8-0.354l9.27-13.82l9.269,13.82c0.257,0.384,0.697,0.604,1.161,0.572c0.461-0.03,0.872-0.303,1.078-0.717
	l13.418-26.933l15.281,40.229c0.17,0.446,0.571,0.764,1.045,0.825c0.056,0.008,0.112,0.012,0.167,0.012
	c0.415,0,0.809-0.199,1.055-0.542l19.766-27.59l12.923,13.079c0.504,0.511,1.325,0.514,1.835,0.011
	C94.03,57.117,94.035,56.296,93.531,55.786z"/>
</svg>

<svg version="1.1" y="0" x="0" id="Doctor" xmlns="http://www.w3.org/2000/svg" xmlns:xlink="http://www.w3.org/1999/xlink" fill="currentColor" viewBox="0 0 24 24"
	 viewBox="0 0 100.75 100.75" style="enable-background:new 0 0 100.75 100.75;" xml:space="preserve">
<g>
	<path d="M50,60.8c-17.008,0-30.845,13.837-30.845,30.845c0,0.829,0.671,1.5,1.5,1.5h58.69c0.829,0,1.5-0.671,1.5-1.5
		C80.845,74.637,67.008,60.8,50,60.8z M22.195,90.145C22.977,75.486,35.15,63.8,50,63.8s27.023,11.686,27.805,26.345H22.195z"/>
	<path d="M49.491,58.057c9.838,0,17.843-8.007,17.843-17.85c0-3.477-1.003-6.831-2.89-9.726V8.355c0-0.829-0.671-1.5-1.5-1.5H36.04
		c-0.829,0-1.5,0.671-1.5,1.5v22.116c-1.892,2.901-2.895,6.262-2.895,9.736C31.644,50.05,39.65,58.057,49.491,58.057z M37.539,9.856
		h23.904v19.947H37.539V9.856z M36.629,32.802h25.729c1.295,2.245,1.976,4.784,1.976,7.405c-0.001,8.189-6.659,14.85-14.843,14.85
		c-8.186,0-14.846-6.662-14.846-14.85C34.645,37.59,35.331,35.05,36.629,32.802z"/>
	<path d="M54.718,18.495h-3.727v-3.733c0-0.829-0.671-1.5-1.5-1.5s-1.5,0.671-1.5,1.5v3.733h-3.728c-0.829,0-1.5,0.671-1.5,1.5
		c0,0.829,0.671,1.5,1.5,1.5h3.728v3.728c0,0.829,0.671,1.5,1.5,1.5s1.5-0.671,1.5-1.5v-3.728h3.727c0.829,0,1.5-0.671,1.5-1.5
		C56.218,19.166,55.546,18.495,54.718,18.495z"/>
</g>
</svg>

<svg version="1.1" y="0" x="0" id="Documento" xmlns="http://www.w3.org/2000/svg" xmlns:xlink="http://www.w3.org/1999/xlink" fill="currentColor" viewBox="0 0 24 24"
	 viewBox="0 0 100.752 100.749" style="enable-background:new 0 0 100.752 100.749;" xml:space="preserve">
<path d="M36.288,65.392H55.7c0.828,0,1.5-0.671,1.5-1.5s-0.672-1.5-1.5-1.5H36.288c-0.828,0-1.5,0.671-1.5,1.5
	S35.46,65.392,36.288,65.392z"/>
<path d="M62.566,69.697H28.984c-0.828,0-1.5,0.671-1.5,1.5s0.672,1.5,1.5,1.5h33.582c0.828,0,1.5-0.671,1.5-1.5
	S63.394,69.697,62.566,69.697z"/>
<path d="M55.7,76.998H36.288c-0.828,0-1.5,0.671-1.5,1.5s0.672,1.5,1.5,1.5H55.7c0.828,0,1.5-0.671,1.5-1.5
	S56.528,76.998,55.7,76.998z"/>
<path d="M36.45,42.441h7.25v7.254c0,0.829,0.672,1.5,1.5,1.5s1.5-0.671,1.5-1.5v-7.254h7.24c0.828,0,1.5-0.671,1.5-1.5
	s-0.672-1.5-1.5-1.5H46.7v-7.25c0-0.829-0.672-1.5-1.5-1.5s-1.5,0.671-1.5,1.5v7.25h-7.25c-0.828,0-1.5,0.671-1.5,1.5
	S35.622,42.441,36.45,42.441z"/>
<path d="M79.95,12.215H27.939c-0.828,0-1.5,0.671-1.5,1.5v7.186h-7.251c-0.828,0-1.5,0.671-1.5,1.5v65.883
	c0,0.829,0.672,1.5,1.5,1.5h52.019c0.828,0,1.5-0.671,1.5-1.5v-7.186h7.243c0.828,0,1.5-0.671,1.5-1.5V13.714
	C81.45,12.887,80.778,12.215,79.95,12.215z M20.688,86.785V23.902h49.019v55.63C69.706,79.555,69.7,79.577,69.7,79.6
	s0.006,0.045,0.007,0.068v7.118H20.688V86.785z M78.45,78.099h-5.743V22.401c0-0.829-0.672-1.5-1.5-1.5H29.439v-5.686H78.45V78.099z
	"/>
</svg>


<svg version="1.1" y="0" x="0" id="Microscopio" xmlns="http://www.w3.org/2000/svg" xmlns:xlink="http://www.w3.org/1999/xlink" fill="currentColor" viewBox="0 0 24 24"
	 viewBox="0 0 100.75 100.75" style="enable-background:new 0 0 100.75 100.75;" xml:space="preserve">
<path d="M86.549,81.743H48.396c-0.02-0.001-0.038-0.006-0.058-0.006c-14.229,0-25.807-11.577-25.807-25.807
	c0-6.878,2.763-13.477,7.621-18.307c1.636,1.503,3.734,2.346,5.972,2.372c0.034,0,0.069,0,0.104,0c1.87,0,3.651-0.577,5.153-1.634
	l7.495,7.675c0.294,0.301,0.684,0.452,1.073,0.452c0.378,0,0.756-0.142,1.048-0.427l1.547-1.51l4.214,4.327
	c0.277,0.285,0.657,0.448,1.055,0.453c0.007,0,0.013,0,0.02,0c0.392,0,0.768-0.153,1.048-0.426l5.383-5.252
	c0.284-0.278,0.447-0.658,0.452-1.056s-0.148-0.781-0.427-1.066l-4.22-4.323l1.257-1.226c0.284-0.278,0.447-0.657,0.452-1.055
	c0.005-0.397-0.148-0.781-0.427-1.066L37.824,9.755c-0.046-0.047-0.098-0.085-0.149-0.125c-0.04-0.054-0.06-0.117-0.109-0.167
	c-3.307-3.352-8.77-3.373-12.184-0.042c-3.363,3.299-3.5,8.673-0.339,12.051c0.071,0.17,0.168,0.331,0.305,0.471l3.635,3.722
	c-1.117,1.509-1.741,3.318-1.762,5.228c-0.018,1.547,0.358,3.036,1.074,4.36c-5.577,5.412-8.761,12.882-8.761,20.677
	c0,11.301,6.544,21.097,16.038,25.813H15.916c-0.828,0-1.5,0.671-1.5,1.5v8.322c0,0.829,0.672,1.5,1.5,1.5h70.635
	c0.828,0,1.5-0.671,1.5-1.5v-8.322C88.049,82.415,87.377,81.743,86.549,81.743z M61.094,42.553l-3.234,3.156l-3.169-3.253
	l3.23-3.153L61.094,42.553z M27.479,11.565c1.952-1.903,4.923-2.142,7.076-0.715l-7.95,7.768
	C25.227,16.439,25.533,13.474,27.479,11.565z M36.724,12.924l21.432,21.958l-8.182,7.985L28.541,20.92L36.724,12.924z
	 M39.246,36.176c-0.92,0.543-1.97,0.833-3.089,0.819c-1.604-0.018-3.104-0.66-4.228-1.81c-1.122-1.145-1.729-2.657-1.711-4.257
	c0.013-1.105,0.33-2.158,0.898-3.076L39.246,36.176z M85.049,90.065H17.414v-5.322h67.635V90.065z"/>
<path d="M61.811,70.137c0.296,0.315,0.695,0.475,1.096,0.475c0.367,0,0.735-0.134,1.024-0.404l22.25-20.812
	c0.605-0.566,0.637-1.516,0.071-2.121c-0.567-0.605-1.516-0.636-2.12-0.071l-22.25,20.812
	C61.277,68.583,61.246,69.532,61.811,70.137z"/>
</svg>


<svg version="1.1" y="0" x="0" id="Layer_1" xmlns="http://www.w3.org/2000/svg" xmlns:xlink="http://www.w3.org/1999/xlink" fill="currentColor" viewBox="0 0 24 24"
	 viewBox="0 0 100.75 100.75" style="enable-background:new 0 0 100.75 100.75;" xml:space="preserve">
<path d="M86.549,81.743H48.396c-0.02-0.001-0.038-0.006-0.058-0.006c-14.229,0-25.807-11.577-25.807-25.807
	c0-6.878,2.763-13.477,7.621-18.307c1.636,1.503,3.734,2.346,5.972,2.372c0.034,0,0.069,0,0.104,0c1.87,0,3.651-0.577,5.153-1.634
	l7.495,7.675c0.294,0.301,0.684,0.452,1.073,0.452c0.378,0,0.756-0.142,1.048-0.427l1.547-1.51l4.214,4.327
	c0.277,0.285,0.657,0.448,1.055,0.453c0.007,0,0.013,0,0.02,0c0.392,0,0.768-0.153,1.048-0.426l5.383-5.252
	c0.284-0.278,0.447-0.658,0.452-1.056s-0.148-0.781-0.427-1.066l-4.22-4.323l1.257-1.226c0.284-0.278,0.447-0.657,0.452-1.055
	c0.005-0.397-0.148-0.781-0.427-1.066L37.824,9.755c-0.046-0.047-0.098-0.085-0.149-0.125c-0.04-0.054-0.06-0.117-0.109-0.167
	c-3.307-3.352-8.77-3.373-12.184-0.042c-3.363,3.299-3.5,8.673-0.339,12.051c0.071,0.17,0.168,0.331,0.305,0.471l3.635,3.722
	c-1.117,1.509-1.741,3.318-1.762,5.228c-0.018,1.547,0.358,3.036,1.074,4.36c-5.577,5.412-8.761,12.882-8.761,20.677
	c0,11.301,6.544,21.097,16.038,25.813H15.916c-0.828,0-1.5,0.671-1.5,1.5v8.322c0,0.829,0.672,1.5,1.5,1.5h70.635
	c0.828,0,1.5-0.671,1.5-1.5v-8.322C88.049,82.415,87.377,81.743,86.549,81.743z M61.094,42.553l-3.234,3.156l-3.169-3.253
	l3.23-3.153L61.094,42.553z M27.479,11.565c1.952-1.903,4.923-2.142,7.076-0.715l-7.95,7.768
	C25.227,16.439,25.533,13.474,27.479,11.565z M36.724,12.924l21.432,21.958l-8.182,7.985L28.541,20.92L36.724,12.924z
	 M39.246,36.176c-0.92,0.543-1.97,0.833-3.089,0.819c-1.604-0.018-3.104-0.66-4.228-1.81c-1.122-1.145-1.729-2.657-1.711-4.257
	c0.013-1.105,0.33-2.158,0.898-3.076L39.246,36.176z M85.049,90.065H17.414v-5.322h67.635V90.065z"/>
<path d="M61.811,70.137c0.296,0.315,0.695,0.475,1.096,0.475c0.367,0,0.735-0.134,1.024-0.404l22.25-20.812
	c0.605-0.566,0.637-1.516,0.071-2.121c-0.567-0.605-1.516-0.636-2.12-0.071l-22.25,20.812
	C61.277,68.583,61.246,69.532,61.811,70.137z"/>
</svg>


<svg version="1.1" y="0" x="0" id="Camilla" xmlns="http://www.w3.org/2000/svg" xmlns:xlink="http://www.w3.org/1999/xlink" fill="currentColor" viewBox="0 0 24 24"
	 viewBox="0 0 100.75 100.749" style="enable-background:new 0 0 100.75 100.749;" xml:space="preserve">
<path d="M88.806,78.707v-7.833c0-0.829-0.671-1.5-1.5-1.5H34.028c-5.092-8.457-14.009-9.968-17.597-10.227v-6.665
	c0-0.829-0.671-1.5-1.5-1.5s-1.5,0.671-1.5,1.5v25.039v1.278V90.71c0,0.829,0.671,1.5,1.5,1.5s1.5-0.671,1.5-1.5V80.299h69.385
	V90.71c0,0.829,0.671,1.5,1.5,1.5s1.5-0.671,1.5-1.5V78.799C88.815,78.767,88.808,78.738,88.806,78.707z M30.411,69.374h-13.98
	v-7.223C19.36,62.386,26.019,63.579,30.411,69.374z M85.807,72.374v4.925H16.432v-4.925h-0.001"/>
<path d="M51.845,37.904v-8.202h8.213c0.829,0,1.5-0.671,1.5-1.5s-0.671-1.5-1.5-1.5h-8.213v-8.204c0-0.829-0.671-1.5-1.5-1.5
	s-1.5,0.671-1.5,1.5v8.204h-8.196c-0.829,0-1.5,0.671-1.5,1.5s0.671,1.5,1.5,1.5h8.196v8.202c0,0.829,0.671,1.5,1.5,1.5
	S51.845,38.733,51.845,37.904z"/>
<path d="M50.345,61.114c0.482,0,0.934-0.231,1.216-0.622c0.711-0.985,17.415-24.241,17.415-34.078
	c0-10.27-8.358-18.625-18.631-18.625c-10.27,0-18.625,8.355-18.625,18.625c0,9.837,16.698,33.093,17.409,34.078
	C49.411,60.883,49.863,61.114,50.345,61.114z M50.345,10.79c8.619,0,15.631,7.009,15.631,15.625
	c0,6.793-10.348,23.031-15.631,30.606c-5.281-7.574-15.625-23.81-15.625-30.606C34.72,17.799,41.73,10.79,50.345,10.79z"/>
</svg>


<svg version="1.1" y="0" x="0" id="Casa" xmlns="http://www.w3.org/2000/svg" xmlns:xlink="http://www.w3.org/1999/xlink" fill="currentColor" viewBox="0 0 24 24"
	 viewBox="0 0 100.75 100.75" style="enable-background:new 0 0 100.75 100.75;" xml:space="preserve">
<path d="M93.92,45.119L52.016,9.308c-0.565-0.484-1.399-0.48-1.959,0.009L9.051,45c-0.625,0.543-0.69,1.491-0.146,2.116
	c0.543,0.625,1.491,0.691,2.116,0.146l8.839-7.692v47.982c0,0.829,0.671,1.5,1.5,1.5h58.731c0.829,0,1.5-0.671,1.5-1.5V38.528
	l10.38,8.871c0.283,0.242,0.629,0.36,0.974,0.36c0.424,0,0.845-0.178,1.142-0.525C94.625,46.604,94.55,45.657,93.92,45.119z
	 M78.591,86.053H22.86V36.961L51.051,12.43l27.541,23.536L78.591,86.053L78.591,86.053z"/>
<path d="M49.226,40.051v14.986H34.245c-0.829,0-1.5,0.671-1.5,1.5s0.671,1.5,1.5,1.5h14.981v14.98c0,0.829,0.671,1.5,1.5,1.5
	s1.5-0.671,1.5-1.5v-14.98h14.981c0.829,0,1.5-0.671,1.5-1.5s-0.671-1.5-1.5-1.5H52.226V40.051c0-0.829-0.671-1.5-1.5-1.5
	S49.226,39.223,49.226,40.051z"/>
</svg>

<svg version="1.1" y="0" x="0" id="chupon" xmlns="http://www.w3.org/2000/svg" xmlns:xlink="http://www.w3.org/1999/xlink" fill="currentColor" viewBox="0 0 24 24"
	 viewBox="0 0 100.5 100.5" style="enable-background:new 0 0 100.5 100.5;" xml:space="preserve">
<path d="M85.408,48.523c-3.636-3.64-8.217-6.068-13.248-7.022c-0.817-0.158-1.599,0.38-1.753,1.194s0.38,1.599,1.194,1.753
	c4.437,0.841,8.477,2.983,11.685,6.196c4.256,4.252,6.599,9.907,6.598,15.922c-0.001,6.013-2.345,11.668-6.598,15.922
	c-8.782,8.776-23.068,8.776-31.845,0.002c-3.203-3.205-5.345-7.244-6.193-11.679c-0.156-0.813-0.94-1.343-1.756-1.191
	c-0.813,0.156-1.347,0.941-1.191,1.756c0.962,5.026,3.389,9.603,7.019,13.235c4.974,4.973,11.506,7.458,18.041,7.458
	c6.534-0.001,13.071-2.487,18.047-7.46c4.82-4.82,7.475-11.229,7.477-18.043C92.885,59.75,90.23,53.341,85.408,48.523z"/>
<path d="M51.052,66.843c0.586,0.586,1.535,0.586,2.121,0l14.47-14.465c0.281-0.282,0.439-0.663,0.439-1.061s-0.158-0.78-0.439-1.061
	l-6.295-6.29c2.263-2.903,7.86-10.542,7.717-14.901c-0.172-4.888-4.152-6.179-6.233-6.179c-0.397,0-0.779,0.158-1.061,0.439
	L47.721,37.38l-9.536-9.54c1.805-5.426,0.42-11.412-3.651-15.481c-2.854-2.855-6.649-4.427-10.69-4.427
	c-4.039,0-7.837,1.572-10.693,4.428C10.3,15.214,8.73,19.01,8.73,23.047c-0.001,4.041,1.573,7.837,4.429,10.689
	c4.041,4.046,9.963,5.442,15.351,3.695l9.578,9.582L24.119,60.976c-0.281,0.281-0.439,0.663-0.439,1.061
	c0,2.081,1.293,6.062,6.189,6.229c0.055,0.002,0.109,0.003,0.165,0.003c4.38-0.001,11.862-5.483,14.729-7.717L51.052,66.843z
	 M28.492,34.242c-0.106,0.029-0.208,0.069-0.303,0.12c-4.475,1.713-9.518,0.649-12.911-2.749c-2.289-2.286-3.55-5.329-3.55-8.567
	c0-3.236,1.259-6.278,3.543-8.566c2.289-2.288,5.333-3.548,8.571-3.548c3.239,0,6.282,1.26,8.569,3.549
	c3.444,3.442,4.488,8.596,2.675,13.096c-0.271,0.573-0.153,1.254,0.295,1.703l10.218,10.222l-2.649,2.65l0.033,0.034
	c-0.486,0.419-1.286,1.217-2.777,2.706l-10.02-10.025C29.833,34.33,29.137,34.066,28.492,34.242z M29.967,65.267
	c-2.429-0.084-3.067-1.725-3.233-2.667c4.205-4.204,10.519-10.515,14.531-14.524c0.001-0.001,0.002-0.001,0.003-0.002
	s0.001-0.002,0.002-0.003c2.169-2.167,3.665-3.662,3.785-3.781c0.006-0.005,0.012-0.011,0.018-0.017L63.399,25.94
	c0.919,0.16,2.582,0.786,2.668,3.228c0.1,3.032-4.785,10.173-7.888,13.962c-0.489,0.597-0.445,1.467,0.1,2.012l6.182,6.177
	l-6.178,6.176l-6.17,6.168l-6.178-6.179c-0.544-0.545-1.414-0.587-2.011-0.1C40.135,60.484,32.95,65.35,29.967,65.267z"/>
<g>
	<g>
		
			<line style="fill:none;stroke:#00AEEF;stroke-width:0.75;stroke-miterlimit:10;" x1="1158.979" y1="202.759" x2="1058.979" y2="202.759"/>
		
			<line style="fill:none;stroke:#00AEEF;stroke-width:0.75;stroke-miterlimit:10;" x1="1158.979" y1="142.761" x2="1058.979" y2="142.761"/>
		
			<line style="fill:none;stroke:#00AEEF;stroke-width:0.75;stroke-miterlimit:10;" x1="1158.979" y1="156.093" x2="1058.979" y2="156.093"/>
		
			<line style="fill:none;stroke:#00AEEF;stroke-width:0.75;stroke-miterlimit:10;" x1="1158.979" y1="149.431" x2="1058.979" y2="149.431"/>
		
			<line style="fill:none;stroke:#00AEEF;stroke-width:0.75;stroke-miterlimit:10;" x1="1158.979" y1="162.763" x2="1058.979" y2="162.763"/>
		
			<line style="fill:none;stroke:#00AEEF;stroke-width:0.75;stroke-miterlimit:10;" x1="1158.979" y1="169.432" x2="1058.979" y2="169.432"/>
		
			<line style="fill:none;stroke:#00AEEF;stroke-width:0.75;stroke-miterlimit:10;" x1="1158.979" y1="176.095" x2="1058.979" y2="176.095"/>
		
			<line style="fill:none;stroke:#00AEEF;stroke-width:0.75;stroke-miterlimit:10;" x1="1158.979" y1="182.764" x2="1058.979" y2="182.764"/>
		
			<line style="fill:none;stroke:#00AEEF;stroke-width:0.75;stroke-miterlimit:10;" x1="1158.979" y1="189.427" x2="1058.979" y2="189.427"/>
		
			<line style="fill:none;stroke:#00AEEF;stroke-width:0.75;stroke-miterlimit:10;" x1="1158.979" y1="196.095" x2="1058.979" y2="196.095"/>
		
			<line style="fill:none;stroke:#00AEEF;stroke-width:0.75;stroke-miterlimit:10;" x1="1158.979" y1="209.427" x2="1058.979" y2="209.427"/>
		
			<line style="fill:none;stroke:#00AEEF;stroke-width:0.75;stroke-miterlimit:10;" x1="1158.979" y1="216.089" x2="1058.979" y2="216.089"/>
		
			<line style="fill:none;stroke:#00AEEF;stroke-width:0.75;stroke-miterlimit:10;" x1="1158.979" y1="222.759" x2="1058.979" y2="222.759"/>
		
			<line style="fill:none;stroke:#00AEEF;stroke-width:0.75;stroke-miterlimit:10;" x1="1158.979" y1="229.429" x2="1058.979" y2="229.429"/>
		
			<line style="fill:none;stroke:#00AEEF;stroke-width:0.75;stroke-miterlimit:10;" x1="1158.979" y1="236.091" x2="1058.979" y2="236.091"/>
		
			<line style="fill:none;stroke:#00AEEF;stroke-width:0.75;stroke-miterlimit:10;" x1="1158.979" y1="242.761" x2="1058.979" y2="242.761"/>
		
			<line style="fill:none;stroke:#00AEEF;stroke-width:0.75;stroke-miterlimit:10;" x1="1158.979" y1="242.761" x2="1158.979" y2="142.761"/>
		
			<line style="fill:none;stroke:#00AEEF;stroke-width:0.75;stroke-miterlimit:10;" x1="1152.309" y1="242.761" x2="1152.309" y2="142.761"/>
		
			<line style="fill:none;stroke:#00AEEF;stroke-width:0.75;stroke-miterlimit:10;" x1="1145.646" y1="242.761" x2="1145.646" y2="142.761"/>
		
			<line style="fill:none;stroke:#00AEEF;stroke-width:0.75;stroke-miterlimit:10;" x1="1138.977" y1="242.761" x2="1138.977" y2="142.761"/>
		
			<line style="fill:none;stroke:#00AEEF;stroke-width:0.75;stroke-miterlimit:10;" x1="1132.315" y1="242.761" x2="1132.315" y2="142.761"/>
		
			<line style="fill:none;stroke:#00AEEF;stroke-width:0.75;stroke-miterlimit:10;" x1="1125.646" y1="242.761" x2="1125.646" y2="142.761"/>
		
			<line style="fill:none;stroke:#00AEEF;stroke-width:0.75;stroke-miterlimit:10;" x1="1118.975" y1="242.761" x2="1118.975" y2="142.761"/>
		
			<line style="fill:none;stroke:#00AEEF;stroke-width:0.75;stroke-miterlimit:10;" x1="1112.314" y1="242.761" x2="1112.314" y2="142.761"/>
		
			<line style="fill:none;stroke:#00AEEF;stroke-width:0.75;stroke-miterlimit:10;" x1="1105.645" y1="242.761" x2="1105.645" y2="142.761"/>
		
			<line style="fill:none;stroke:#00AEEF;stroke-width:0.75;stroke-miterlimit:10;" x1="1098.982" y1="242.761" x2="1098.982" y2="142.761"/>
		
			<line style="fill:none;stroke:#00AEEF;stroke-width:0.75;stroke-miterlimit:10;" x1="1092.313" y1="242.761" x2="1092.313" y2="142.761"/>
		
			<line style="fill:none;stroke:#00AEEF;stroke-width:0.75;stroke-miterlimit:10;" x1="1085.65" y1="242.761" x2="1085.65" y2="142.761"/>
		
			<line style="fill:none;stroke:#00AEEF;stroke-width:0.75;stroke-miterlimit:10;" x1="1078.981" y1="242.761" x2="1078.981" y2="142.761"/>
		
			<line style="fill:none;stroke:#00AEEF;stroke-width:0.75;stroke-miterlimit:10;" x1="1072.31" y1="242.761" x2="1072.31" y2="142.761"/>
		
			<line style="fill:none;stroke:#00AEEF;stroke-width:0.75;stroke-miterlimit:10;" x1="1065.649" y1="242.761" x2="1065.649" y2="142.761"/>
		
			<line style="fill:none;stroke:#00AEEF;stroke-width:0.75;stroke-miterlimit:10;" x1="1058.979" y1="242.761" x2="1058.979" y2="142.761"/>
	</g>
	
		<line style="fill:none;stroke:#ED1C24;stroke-width:0.75;stroke-miterlimit:10;" x1="1152.309" y1="142.761" x2="1152.309" y2="242.761"/>
	
		<line style="fill:none;stroke:#ED1C24;stroke-width:0.75;stroke-miterlimit:10;" x1="1065.649" y1="142.761" x2="1065.649" y2="242.761"/>
</g>
</svg>

<svg version="1.1" y="0" x="0" id="Laboratorio" xmlns="http://www.w3.org/2000/svg" xmlns:xlink="http://www.w3.org/1999/xlink" fill="currentColor" viewBox="0 0 24 24"
	 viewBox="0 0 100.75 100.749" style="enable-background:new 0 0 100.75 100.749;" xml:space="preserve">
<path d="M41.519,48.213V31.855h6.256c0.829,0,1.5-0.671,1.5-1.5s-0.671-1.5-1.5-1.5h-7.756H24.506h-7.758
	c-0.829,0-1.5,0.671-1.5,1.5s0.671,1.5,1.5,1.5h6.258v16.358l-7.638,17.44c-0.001,0.002-0.002,0.005-0.003,0.007L9.316,79.473
	c-0.083,0.189-0.126,0.395-0.126,0.602c0,6.008,4.365,10.896,9.73,10.896h26.682c5.367,0,9.734-4.888,9.734-10.896
	c0-0.207-0.043-0.412-0.126-0.602L41.519,48.213z M25.88,49.128c0.083-0.189,0.126-0.395,0.126-0.602V31.854h12.513v16.672
	c0,0.207,0.043,0.412,0.126,0.602l6.837,15.612h-26.44L25.88,49.128z M45.602,87.969H18.92c-3.625,0-6.589-3.379-6.725-7.593
	l5.534-12.637h29.068l5.534,12.637C52.194,84.59,49.228,87.969,45.602,87.969z"/>
<path d="M90.074,9.03H65.516c-0.829,0-1.5,0.671-1.5,1.5s0.671,1.5,1.5,1.5h2.697v68.215c0,5.913,4.299,10.724,9.583,10.724
	c5.283,0,9.582-4.811,9.582-10.724V12.03h2.697c0.829,0,1.5-0.671,1.5-1.5S90.902,9.03,90.074,9.03z M84.377,80.246
	c0,4.259-2.953,7.724-6.582,7.724c-3.629,0-6.583-3.465-6.583-7.724V57.039h6.233c0.829,0,1.5-0.671,1.5-1.5s-0.671-1.5-1.5-1.5
	h-6.233v-8.154h6.233c0.829,0,1.5-0.671,1.5-1.5s-0.671-1.5-1.5-1.5h-6.233v-8.153h6.233c0.829,0,1.5-0.671,1.5-1.5
	s-0.671-1.5-1.5-1.5h-6.233v-8.15h6.233c0.829,0,1.5-0.671,1.5-1.5s-0.671-1.5-1.5-1.5h-6.233V12.03h13.164L84.377,80.246
	L84.377,80.246z"/>
</svg>

<svg version="1.1" y="0" x="0" id="Madre" xmlns="http://www.w3.org/2000/svg" xmlns:xlink="http://www.w3.org/1999/xlink" fill="currentColor" viewBox="0 0 24 24"
	 viewBox="0 0 100.5 100.5" style="enable-background:new 0 0 100.5 100.5;" xml:space="preserve">
<path d="M49.841,50.82c-1.391-1.872-3.619-3.086-6.127-3.086c-4.203,0-7.623,3.418-7.623,7.621c0,1.636,0.525,3.202,1.55,4.566
	l11.03,13.78c0.284,0.355,0.716,0.562,1.171,0.562h0.001c0.456,0,0.887-0.208,1.172-0.564l11.272-14.127
	c0.032-0.04,0.062-0.082,0.09-0.125c0.796-1.241,1.217-2.656,1.217-4.091c0-4.202-3.423-7.621-7.63-7.621
	C53.458,47.734,51.232,48.948,49.841,50.82z M60.594,55.354c0,0.837-0.243,1.669-0.703,2.41L49.84,70.36l-9.828-12.278
	c-0.603-0.803-0.921-1.747-0.921-2.729c0-2.548,2.074-4.621,4.623-4.621c2.552,0,4.628,2.073,4.628,4.621c0,0.829,0.672,1.5,1.5,1.5
	s1.5-0.671,1.5-1.5c0-2.548,2.073-4.621,4.622-4.621C58.517,50.734,60.594,52.806,60.594,55.354z"/>
<path d="M49.842,25.195c6.072,0,11.012-4.943,11.012-11.019c0-6.071-4.939-11.01-11.012-11.01c-6.075,0-11.019,4.939-11.019,11.01
	C38.824,20.252,43.767,25.195,49.842,25.195z M49.842,6.166c4.418,0,8.012,3.593,8.012,8.01c0,4.422-3.594,8.019-8.012,8.019
	c-4.422,0-8.019-3.597-8.019-8.019C41.824,9.759,45.42,6.166,49.842,6.166z"/>
<path d="M81.194,75.216L60.937,30.397c-0.243-0.537-0.777-0.882-1.367-0.882H38.819c-0.603,0-1.146,0.36-1.382,0.916L18.47,75.25
	c-0.195,0.464-0.146,0.994,0.132,1.413c0.277,0.42,0.747,0.672,1.25,0.672h15.617l7.043,18.534c0.222,0.582,0.779,0.967,1.402,0.967
	h12.847c0.647,0,1.222-0.416,1.425-1.031l6.082-18.47h15.559c0.51,0,0.984-0.259,1.261-0.687
	C81.363,76.22,81.404,75.681,81.194,75.216z M63.183,74.334c-0.647,0-1.222,0.416-1.425,1.031l-6.082,18.47H44.948l-7.043-18.534
	c-0.222-0.582-0.779-0.967-1.402-0.967H22.115l17.697-41.82h18.789l18.9,41.82H63.183z"/>
</svg>

<svg version="1.1" y="0" x="0" id="diente" xmlns="http://www.w3.org/2000/svg" xmlns:xlink="http://www.w3.org/1999/xlink" fill="currentColor" viewBox="0 0 24 24"
	 viewBox="0 0 100.75 100.75" style="enable-background:new 0 0 100.75 100.75;" xml:space="preserve">
<g>
	<path d="M71.977,11.926c-0.001,0-0.001-0.001-0.002-0.001c-5.213-2.49-10.819-0.501-15.324,1.096
		c-2.304,0.817-4.48,1.589-6.093,1.589s-3.789-0.771-6.092-1.589c-4.504-1.598-10.11-3.585-15.327-1.096
		c-7.744,3.707-13.397,12.378-9.219,21.779c1.294,2.919,2.501,5.15,3.472,6.942c1.876,3.467,3.009,5.56,3.009,9.145
		c0,5.575,1.669,23.824,9.084,34.196c3.744,5.243,7.675,7.059,7.841,7.134c0.557,0.252,1.214,0.139,1.657-0.286
		c0.442-0.425,0.581-1.077,0.351-1.645c-0.054-0.132-5.32-13.321-2.18-21.899c1.75-4.755,5.138-7.43,7.24-7.208
		c0.109,0.013,0.221,0.013,0.33,0c2.12-0.224,5.49,2.454,7.236,7.206c3.144,8.58-2.129,21.768-2.183,21.9
		c-0.23,0.568-0.092,1.22,0.35,1.645c0.286,0.274,0.66,0.419,1.041,0.419c0.208,0,0.417-0.043,0.615-0.132
		c0.166-0.075,4.104-1.891,7.849-7.134c7.41-10.374,9.078-28.622,9.078-34.197c0-3.584,1.132-5.676,3.008-9.143
		c0.97-1.793,2.177-4.024,3.47-6.941C85.371,24.31,79.721,15.637,71.977,11.926z M78.445,32.488
		c-1.247,2.812-2.374,4.895-3.368,6.732c-1.956,3.615-3.369,6.227-3.369,10.571c0,6.697-2.083,23.442-8.519,32.453
		c-1.068,1.495-2.15,2.67-3.122,3.575c1.435-4.995,3.046-13.179,0.708-19.563c-1.971-5.365-6.101-9.186-9.806-9.186
		c-0.138,0-0.275,0.005-0.411,0.016c-3.807-0.305-8.174,3.605-10.222,9.171C38,72.638,39.608,80.819,41.041,85.814
		c-0.97-0.904-2.05-2.078-3.116-3.571c-6.441-9.01-8.525-25.755-8.525-32.452c0-4.344-1.414-6.957-3.371-10.572
		c-0.994-1.837-2.121-3.919-3.368-6.732c-2.495-5.613-1.126-13.596,7.771-17.854c4.09-1.955,8.84-0.271,13.031,1.216
		c2.554,0.906,4.966,1.761,7.095,1.761s4.542-0.855,7.096-1.761c4.189-1.486,8.936-3.169,13.029-1.217
		C79.58,18.897,80.944,26.876,78.445,32.488z"/>
	<path d="M35.869,21.015c0.824-0.005,1.491-0.674,1.491-1.5c0-0.829-0.671-1.5-1.5-1.5c-0.151,0-3.723,0.031-6.193,2.735
		c-1.744,1.91-2.474,4.591-2.167,7.967c0.654,7.34,7.12,12.863,7.395,13.095c0.281,0.237,0.625,0.353,0.965,0.353
		c0.427,0,0.852-0.182,1.148-0.534c0.534-0.634,0.453-1.58-0.181-2.114c-0.058-0.049-5.793-4.944-6.339-11.068
		c-0.226-2.49,0.237-4.392,1.375-5.653C33.418,21.071,35.827,21.015,35.869,21.015z"/>
</g>
</svg>






